<svg width="32" height="24" viewBox="0 0 32 24" fill="none" xmlns="http://www.w3.org/2000/svg">
<path d="M0 18.8684C0.25803 18.2705 0.659688 17.8697 1.35862 17.8731C1.79619 17.8747 2.23375 17.8731 2.67132 17.8731C2.81578 17.8731 2.95941 17.8731 3.14813 17.8731C3.11389 17.4673 3.08717 17.089 3.04959 16.7116C2.86839 14.8687 2.68551 13.0266 2.50097 11.1837C2.32227 9.40344 2.13939 7.624 1.96236 5.8429C1.82291 4.43505 1.68429 3.0272 1.55736 1.61768C1.50476 1.03317 1.83126 0.685797 2.4183 0.685797C6.20942 0.683292 10.0005 0.682457 13.7917 0.685797C14.3812 0.685797 14.7044 1.07325 14.6459 1.65776C14.4455 3.67601 14.2518 5.69594 14.0522 7.71419C13.9804 8.43899 13.9002 9.16295 13.8267 9.88692C13.8175 9.9771 13.8259 10.069 13.8259 10.195C13.9695 10.195 14.1015 10.195 14.2342 10.195C19.7856 10.195 25.337 10.195 30.8884 10.1975C31.0838 10.1975 31.2884 10.2092 31.4738 10.2652C31.8145 10.3679 32.0157 10.6902 31.999 11.0977C31.9139 13.2295 31.2158 15.1442 29.9264 16.8418C28.9853 18.081 27.8154 19.0505 26.4218 19.7427C26.2205 19.8429 26.1621 19.9615 26.1654 20.1744C26.1771 20.8508 26.1712 21.528 26.1696 22.2052C26.1671 22.9266 25.8598 23.2364 25.1466 23.2373C19.0115 23.2373 12.8773 23.2439 6.74218 23.2339C4.83075 23.2306 3.39363 22.378 2.46423 20.6988C2.38239 20.5502 2.29889 20.4825 2.12854 20.4984C1.9632 20.5134 1.79452 20.4892 1.62918 20.5034C0.833378 20.5719 0.285586 20.247 0 19.4947V18.8693L0 18.8684ZM4.08672 17.5992C4.26125 17.1499 4.50341 16.7934 4.9034 16.5404C4.96687 16.5003 4.99526 16.3667 4.9986 16.2748C5.02114 15.5275 5.38689 15.0131 6.0708 14.7459C6.17267 14.7067 6.27872 14.5864 6.31213 14.4812C6.52256 13.8107 7.04697 13.3815 7.74089 13.308C7.8578 13.2955 8.0056 13.2103 8.0699 13.1134C8.46238 12.5197 9.06361 12.2417 9.76421 12.3912C9.93456 12.4271 10.0147 12.3603 10.1442 12.2868C10.4439 12.1164 10.7621 11.9619 11.0919 11.8693C11.2932 11.8125 11.5312 11.8826 11.7708 11.8968C11.7558 11.6647 11.7458 11.4476 11.7257 11.2313C11.6698 10.6109 11.9838 10.2418 12.6084 10.1984C12.6802 10.1934 12.7512 10.185 12.8497 10.1767C13 8.65526 13.1495 7.14136 13.3031 5.59323C13.1403 5.59323 13.0176 5.59323 12.894 5.59323C12.3729 5.59239 11.8518 5.60158 11.3316 5.58488C11.0352 5.57569 10.8439 5.37362 10.8389 5.1206C10.8347 4.85841 11.0435 4.6555 11.3466 4.63462C11.461 4.62711 11.5754 4.63212 11.6907 4.63212C12.251 4.63212 12.8113 4.63212 13.3983 4.63212C13.4985 3.62424 13.5962 2.6456 13.6948 1.65275H2.50347C2.60368 2.65395 2.70221 3.63259 2.80242 4.63212C2.95189 4.63212 3.06463 4.63212 3.17819 4.63212C5.07375 4.63212 6.97014 4.63212 8.8657 4.63212C9.35588 4.63212 9.59971 4.79244 9.59971 5.11309C9.59971 5.43457 9.35922 5.59239 8.86487 5.59323C7.00021 5.59323 5.13554 5.59323 3.27088 5.59406C3.15231 5.59406 3.03373 5.60408 2.89678 5.60993C3.29677 9.63892 3.69091 13.6203 4.08589 17.6025L4.08672 17.5992ZM5.10298 17.8731H5.47875C8.17679 17.8731 10.874 17.8731 13.572 17.8731C13.6656 17.8731 13.7608 17.8664 13.8534 17.8773C14.1081 17.9073 14.3102 18.1261 14.2852 18.3649C14.2584 18.6196 14.1215 18.7899 13.8476 18.81C13.7232 18.8192 13.5979 18.8183 13.4727 18.8183C9.51453 18.8183 5.55641 18.8183 1.59828 18.8183C1.48388 18.8183 1.34109 18.7841 1.26176 18.8392C1.13232 18.9294 0.95947 19.083 0.96448 19.2033C0.969491 19.3243 1.15821 19.4513 1.28764 19.5481C1.34192 19.5882 1.44964 19.5582 1.53231 19.5582C8.60517 19.5582 15.6772 19.5582 22.75 19.5582C22.8335 19.5582 22.9413 19.5891 22.9947 19.549C23.1233 19.4538 23.2887 19.3402 23.3246 19.2041C23.3797 18.9953 23.2202 18.8592 23.0064 18.825C22.9146 18.81 22.8194 18.8167 22.7258 18.8167C21.2361 18.8167 19.7464 18.8167 18.2575 18.8167C17.5385 18.8167 16.8195 18.8275 16.1014 18.8083C15.9419 18.8041 15.7306 18.7365 15.6421 18.6221C15.5553 18.5102 15.5252 18.253 15.5979 18.1453C15.6897 18.0092 15.9077 17.8889 16.0747 17.8839C17.0007 17.8597 17.9285 17.8722 18.8554 17.8714C18.9639 17.8714 19.0725 17.8622 19.1944 17.8572C19.1602 17.5249 18.9781 17.3712 18.7092 17.2827C18.2333 17.1266 18.1656 16.9888 18.3017 16.4953C18.4429 15.9868 18.1773 15.631 17.6462 15.6152C17.2103 15.6018 17.0625 15.4523 17.0684 15.0298C17.0767 14.4294 16.7569 14.1714 16.1757 14.3109C15.7841 14.4044 15.5928 14.2858 15.5002 13.8909C15.3691 13.3306 14.9682 13.1494 14.4722 13.4249C14.0814 13.6429 13.891 13.5869 13.6647 13.1903C13.4 12.7277 12.9641 12.6609 12.5808 13.0249C12.2251 13.3631 12.0573 13.3606 11.6915 13.0124C11.3458 12.6826 10.9107 12.731 10.6594 13.1268C10.3412 13.6295 10.2753 13.6479 9.74584 13.3823C9.33667 13.1769 8.93251 13.3523 8.81059 13.7873C8.6536 14.3434 8.56175 14.4011 8.00059 14.2892C7.54048 14.1973 7.19394 14.4879 7.2073 14.9555C7.22316 15.4799 7.12296 15.5876 6.59437 15.616C6.10838 15.6419 5.84617 16.0126 5.98479 16.4761C6.1351 16.9771 6.06412 17.1224 5.5681 17.2877C5.29754 17.3779 5.11884 17.5332 5.0988 17.8739L5.10298 17.8731ZM25.2068 22.2711C25.2068 21.4178 25.2168 20.5961 25.2017 19.7753C25.1951 19.4145 25.332 19.2016 25.6652 19.0546C26.8936 18.5135 27.944 17.7211 28.815 16.7024C29.1615 16.2982 29.4605 15.8532 29.812 15.3847H19.095C19.1618 15.6077 19.2779 15.8156 19.2746 16.021C19.2687 16.3709 19.4608 16.5512 19.6729 16.7875C19.9301 17.0748 20.0729 17.4648 20.2658 17.8105C20.2432 17.8313 20.2207 17.853 20.1981 17.8739C20.3109 17.8739 20.4244 17.8739 20.5372 17.8739C21.3597 17.8739 22.1822 17.8664 23.0047 17.8764C23.7204 17.8856 24.2932 18.4659 24.3057 19.1715C24.3191 19.8721 23.7529 20.4658 23.0398 20.4951C22.8736 20.5017 22.7041 20.5193 22.5404 20.4967C22.1263 20.4391 21.8758 20.5702 21.6628 20.966C21.4465 21.3685 21.0866 21.695 20.7818 22.0482C20.7259 22.1125 20.6332 22.1459 20.5572 22.1927C20.5781 22.2185 20.5981 22.2444 20.619 22.2703H25.2076L25.2068 22.2711ZM3.45626 20.5176C3.53225 20.6345 3.58069 20.7222 3.64164 20.8007C4.41657 21.796 5.44535 22.2837 6.69708 22.2862C10.332 22.2929 13.967 22.2895 17.602 22.287C18.4245 22.287 19.1844 22.0674 19.8549 21.5797C20.2407 21.2992 20.5781 20.9718 20.8294 20.5176H3.45543H3.45626ZM12.7362 11.8743C13.238 11.8091 13.6514 11.8876 14.0288 12.1599C14.1524 12.2492 14.3252 12.3143 14.4756 12.3143C19.8483 12.3218 25.2201 12.321 30.5928 12.3202C30.703 12.3202 30.8133 12.3093 30.9318 12.3026C30.9761 11.9127 31.017 11.5561 31.0604 11.1812H12.6735C12.6952 11.4183 12.7144 11.6313 12.737 11.8743H12.7362ZM30.6955 13.313H16.8237C17.2805 13.4792 17.6537 13.7364 17.8508 14.1773C17.9443 14.386 18.0613 14.4328 18.27 14.4328C22.0828 14.4269 25.8957 14.4286 29.7085 14.4286C29.8438 14.4286 29.9816 14.4445 30.1135 14.4219C30.1895 14.4094 30.2922 14.3518 30.3198 14.2875C30.4542 13.9752 30.5669 13.6529 30.6955 13.313Z" fill="#1A1A1A"/>
<path d="M21.6051 7.2407C20.887 7.2407 20.168 7.23903 19.4499 7.2407C18.9347 7.24237 18.7292 7.44444 18.7192 7.95464C18.7142 8.20431 18.7259 8.45565 18.7067 8.70366C18.6858 8.97587 18.4837 9.15874 18.2407 9.15791C18.0036 9.15707 17.7764 8.96418 17.7714 8.70199C17.7639 8.29784 17.7522 7.88533 17.8207 7.49037C17.9426 6.79145 18.5564 6.30965 19.2662 6.30714C20.6924 6.30213 22.1195 6.3063 23.5458 6.3038C23.6694 6.3038 23.798 6.29712 23.914 6.26205C24.1888 6.17938 24.3424 5.93889 24.3157 5.66751C24.2898 5.39864 24.0902 5.18821 23.8063 5.16566C23.5475 5.14562 23.2861 5.1523 23.0264 5.15147C22.016 5.1498 21.0064 5.15397 19.996 5.1498C19.3605 5.14646 18.8637 4.88009 18.5722 4.30642C18.3059 3.78287 18.3443 3.2568 18.6733 2.76831C18.938 2.37585 19.3113 2.12618 19.7897 2.11866C20.9972 2.10113 22.2055 2.10447 23.413 2.10948C23.7237 2.11031 23.9241 2.32074 23.9132 2.59045C23.9024 2.85432 23.6911 3.04637 23.3813 3.04721C22.2565 3.05138 21.1317 3.04721 20.0077 3.05055C19.6378 3.05138 19.3981 3.24511 19.3672 3.55156C19.3288 3.93818 19.5643 4.18785 19.9893 4.18869C21.2077 4.19286 22.426 4.18618 23.6443 4.19203C24.4218 4.19537 24.9963 4.60954 25.2034 5.29676C25.4889 6.24702 24.7817 7.22567 23.7913 7.23819C23.0623 7.24738 22.3333 7.23986 21.6043 7.23986L21.6051 7.2407Z" fill="#1A1A1A"/>
<path d="M27.2447 3.04932C26.7762 3.04932 26.3086 3.04932 25.8401 3.04932C25.4 3.04932 25.1687 2.88899 25.1604 2.58171C25.152 2.25855 25.3758 2.10073 25.8493 2.10073C26.7754 2.0999 27.7014 2.10324 28.6275 2.09906C29.0475 2.09739 29.2788 1.93039 29.3231 1.62059C29.3782 1.23147 29.136 0.961761 28.6951 0.953411C28.1023 0.94172 27.5094 0.950906 26.9165 0.950071C26.4405 0.950071 26.21 0.800602 26.2017 0.489973C26.1933 0.167654 26.4388 0.00148449 26.9248 0.00148449C27.5177 0.00148449 28.1106 -0.00185561 28.7035 0.00148449C29.6095 0.00816467 30.3043 0.680358 30.2943 1.53626C30.2842 2.38631 29.6037 3.04013 28.7118 3.04932C28.2225 3.05433 27.734 3.05015 27.2447 3.05015V3.04932Z" fill="#1A1A1A"/>
<path d="M14.6403 15.7602C14.7648 15.7602 14.8917 15.7443 15.0136 15.7635C15.28 15.8044 15.452 15.9522 15.4495 16.2403C15.447 16.5092 15.2975 16.6745 15.0353 16.6979C14.7781 16.7204 14.5159 16.7229 14.2587 16.7021C13.9865 16.6795 13.8187 16.515 13.8203 16.232C13.822 15.9464 14.0015 15.8019 14.2671 15.7627C14.389 15.7451 14.5159 15.7593 14.6403 15.7593C14.6403 15.7593 14.6403 15.7602 14.6403 15.761V15.7602Z" fill="#1A1A1A"/>
<path d="M11.2701 15.7302C11.1457 15.7302 11.0187 15.7452 10.8968 15.7277C10.6288 15.6901 10.4609 15.5365 10.4459 15.2568C10.4334 15.0146 10.6229 14.81 10.8918 14.7908C11.1398 14.7733 11.3903 14.7724 11.6383 14.7908C11.9173 14.81 12.0876 14.9996 12.0884 15.2526C12.0893 15.4972 11.9089 15.6976 11.6434 15.7285C11.5206 15.7427 11.3945 15.731 11.2701 15.731V15.7302Z" fill="#1A1A1A"/>
<path d="M8.25559 16.1234C8.39003 16.1234 8.52698 16.1084 8.65975 16.1268C8.92196 16.1627 9.06726 16.3239 9.06642 16.5894C9.06642 16.8558 8.91779 17.0253 8.65641 17.0478C8.3892 17.0712 8.11614 17.072 7.84892 17.0478C7.58922 17.0236 7.43975 16.8541 7.44142 16.586C7.44309 16.3188 7.59089 16.161 7.85226 16.126C7.98504 16.1084 8.12115 16.1226 8.25643 16.1226L8.25559 16.1234Z" fill="#1A1A1A"/>
</svg>
